<svg data-v-423bf9ae="" xmlns="http://www.w3.org/2000/svg" viewBox="0 0 475 90" class="iconLeft"><!----><!----><!----><g data-v-423bf9ae="" id="098dbd4e-00f7-4bf5-bfb0-622d173b1b91" fill="black" transform="matrix(5.623242696436797,0,0,5.623242696436797,122.3778972767202,2.347704886691524)"><path d="M2.91 12.75L0.98 12.75L0.98 7.17Q0.98 5.45 1.26 4.96Q1.54 4.47 2.46 3.63Q3.37 2.79 3.82 2.79L3.82 2.79Q4.44 2.79 5.35 3.28Q6.26 3.77 6.71 4.38L6.71 4.38L5.15 5.46Q4.37 4.68 3.89 4.68L3.89 4.68Q3.71 4.68 3.47 4.91Q3.23 5.14 3.07 5.40Q2.91 5.66 2.91 6.71L2.91 6.71L2.91 7.03L5.42 7.03L5.42 8.72L2.91 8.72L2.91 12.75ZM9.44 7.38L9.44 12.75L7.59 12.75L7.59 7.92Q7.59 7.21 7.41 6.81Q7.24 6.41 6.89 6.12L6.89 6.12L8.43 5.04Q8.93 5.46 9.20 6.02L9.20 6.02Q10.23 5.04 10.65 5.04L10.65 5.04Q10.93 5.04 11.51 5.56Q12.08 6.08 12.18 6.69L12.18 6.69L10.68 7.77Q10.67 7.43 10.52 7.11Q10.37 6.79 10.26 6.79L10.26 6.79Q10.02 6.79 9.44 7.38L9.44 7.38ZM17.70 8.96L17.70 8.96L17.70 9.46L14.31 9.46Q14.31 10.30 14.52 10.79L14.52 10.79Q14.59 10.96 14.77 11.14Q14.95 11.31 15.15 11.31Q15.34 11.31 15.64 10.98Q15.93 10.64 16.10 10.16L16.10 10.16L17.54 11.19Q17.16 11.89 16.39 12.40Q15.61 12.92 15.13 12.92Q14.66 12.92 13.75 12.18Q12.85 11.44 12.66 11.02Q12.46 10.61 12.46 8.98Q12.46 7.35 12.66 6.94Q12.85 6.52 13.75 5.78Q14.66 5.04 15.08 5.04Q15.50 5.04 16.40 5.78Q17.30 6.52 17.50 6.94Q17.70 7.35 17.70 8.96ZM15.76 7.20Q15.65 7.01 15.43 6.83Q15.22 6.65 15.03 6.65Q14.84 6.65 14.60 7.02Q14.36 7.39 14.31 8.13L14.31 8.13L15.90 8.13Q15.86 7.39 15.76 7.20ZM23.91 8.96L23.91 8.96L23.91 9.46L20.52 9.46Q20.52 10.30 20.73 10.79L20.73 10.79Q20.80 10.96 20.99 11.14Q21.17 11.31 21.36 11.31Q21.56 11.31 21.85 10.98Q22.15 10.64 22.32 10.16L22.32 10.16L23.76 11.19Q23.38 11.89 22.60 12.40Q21.83 12.92 21.35 12.92Q20.87 12.92 19.97 12.18Q19.07 11.44 18.87 11.02Q18.68 10.61 18.68 8.98Q18.68 7.35 18.87 6.94Q19.07 6.52 19.97 5.78Q20.87 5.04 21.29 5.04Q21.71 5.04 22.62 5.78Q23.52 6.52 23.72 6.94Q23.91 7.35 23.91 8.96ZM21.97 7.20Q21.87 7.01 21.65 6.83Q21.43 6.65 21.25 6.65Q21.06 6.65 20.82 7.02Q20.58 7.39 20.52 8.13L20.52 8.13L22.12 8.13Q22.08 7.39 21.97 7.20ZM30.88 12.75L28.95 12.75L28.95 7.17Q28.95 5.45 29.23 4.96Q29.51 4.47 30.43 3.63Q31.35 2.79 31.79 2.79L31.79 2.79Q32.41 2.79 33.32 3.28Q34.23 3.77 34.68 4.38L34.68 4.38L33.12 5.46Q32.34 4.68 31.86 4.68L31.86 4.68Q31.68 4.68 31.44 4.91Q31.21 5.14 31.05 5.40Q30.88 5.66 30.88 6.71L30.88 6.71L30.88 7.03L33.39 7.03L33.39 8.72L30.88 8.72L30.88 12.75ZM35.21 10.65L35.21 5.21L37.06 5.21L37.06 10.05Q37.06 10.77 37.23 11.16Q37.39 11.55 37.76 11.84L37.76 11.84L36.22 12.92Q35.21 12.12 35.21 10.65L35.21 10.65ZM36.17 2.28Q36.32 2.28 36.85 2.74Q37.38 3.19 37.38 3.35Q37.38 3.51 36.84 3.98Q36.30 4.44 36.16 4.44Q36.01 4.44 35.48 3.98Q34.94 3.53 34.94 3.37Q34.94 3.21 35.48 2.74Q36.02 2.28 36.17 2.28ZM40.52 7.38L40.52 12.75L38.67 12.75L38.67 7.92Q38.67 7.21 38.50 6.82Q38.33 6.43 37.97 6.13L37.97 6.13L39.51 5.05Q40.03 5.47 40.28 6.02L40.28 6.02Q41.31 5.04 41.74 5.04Q42.17 5.04 43.03 5.82Q43.89 6.59 43.89 7.35L43.89 7.35L43.89 10.05Q43.89 10.77 44.06 11.16Q44.23 11.55 44.59 11.84L44.59 11.84L43.05 12.92Q42.04 12.12 42.04 10.65L42.04 10.65L42.04 7.55Q42.04 7.31 41.79 7.05Q41.54 6.79 41.32 6.79Q41.10 6.79 40.52 7.38L40.52 7.38ZM45.37 6.89Q45.49 6.54 46.25 5.79Q47.01 5.04 47.38 5.04Q47.74 5.04 48.62 5.80L48.62 5.80L48.62 5.11Q48.62 4.40 48.45 4.02Q48.29 3.64 47.92 3.33L47.92 3.33L49.46 2.25Q50.47 3.05 50.47 4.51L50.47 4.51L50.47 12.75L49.04 12.75L48.87 11.93Q47.85 12.92 47.35 12.92L47.35 12.92Q47.01 12.92 46.25 12.17Q45.49 11.42 45.37 11.07L45.37 11.07Q45.22 10.72 45.22 8.98Q45.22 7.24 45.37 6.89L45.37 6.89ZM48.52 7.34Q48.43 7.17 48.13 6.98Q47.82 6.79 47.67 6.79Q47.52 6.79 47.34 6.97Q47.17 7.15 47.08 7.35Q47.00 7.55 47.00 8.98Q47.00 10.42 47.08 10.61Q47.17 10.79 47.34 10.98Q47.52 11.17 47.66 11.17Q47.81 11.17 48.11 10.98Q48.41 10.79 48.51 10.65L48.51 10.65Q48.59 10.46 48.62 9.52L48.62 9.52L48.62 9.00Q48.62 7.52 48.52 7.34ZM56.55 8.96L56.55 8.96L56.55 9.46L53.16 9.46Q53.16 10.30 53.37 10.79L53.37 10.79Q53.44 10.96 53.62 11.14Q53.80 11.31 54.00 11.31Q54.19 11.31 54.49 10.98Q54.78 10.64 54.95 10.16L54.95 10.16L56.39 11.19Q56.01 11.89 55.24 12.40Q54.46 12.92 53.98 12.92Q53.51 12.92 52.61 12.18Q51.70 11.44 51.51 11.02Q51.31 10.61 51.31 8.98Q51.31 7.35 51.51 6.94Q51.70 6.52 52.61 5.78Q53.51 5.04 53.93 5.04Q54.35 5.04 55.25 5.78Q56.15 6.52 56.35 6.94Q56.55 7.35 56.55 8.96ZM54.61 7.20Q54.50 7.01 54.29 6.83Q54.07 6.65 53.88 6.65Q53.69 6.65 53.45 7.02Q53.21 7.39 53.16 8.13L53.16 8.13L54.75 8.13Q54.71 7.39 54.61 7.20ZM59.86 7.38L59.86 12.75L58.02 12.75L58.02 7.92Q58.02 7.21 57.84 6.81Q57.67 6.41 57.32 6.12L57.32 6.12L58.86 5.04Q59.36 5.46 59.63 6.02L59.63 6.02Q60.66 5.04 61.08 5.04L61.08 5.04Q61.36 5.04 61.94 5.56Q62.51 6.08 62.61 6.69L62.61 6.69L61.11 7.77Q61.10 7.43 60.95 7.11Q60.80 6.79 60.69 6.79L60.69 6.79Q60.45 6.79 59.86 7.38L59.86 7.38Z"></path></g><!----><g data-v-423bf9ae="" id="a0268bd8-d5bf-48c3-961a-78242074e34c" transform="matrix(1.1110288578850736,0,0,1.1110288578850736,-1.1105468655273185,-8.888230863080587)" stroke="none" fill="black"><path d="M9.598 89.006h89.006V16.101H58.201v8.1h32.302v56.704H17.698V56.604h-8.1z"></path><path d="M1.497 48.503h8.101v-8.101h8.101v8.101H25.8v-8.101h8.101v8.101H42v-8.101h8.101v8.101h8.101V32.302h-8.101V16.101H42V8h-8.101v8.101h-8.101V8h-8.101v8.101H9.598v16.201H1.497v16.201zm16.201-16.201v-8.101h8.101v8.101h-8.101zm16.201 0v-8.101H42v8.101h-8.101z"></path></g><!----></svg>